<?xml version="1.0" encoding="UTF-8"?>
<svg xmlns="http://www.w3.org/2000/svg" xmlns:xlink="http://www.w3.org/1999/xlink" width="96pt" height="96pt" viewBox="0 0 96 96" version="1.1">
<g id="surface1">
<path style=" stroke:none;fill-rule:nonzero;fill:#F44336;fill-opacity:1;" d="M 70 58.8125 C 70 54.40625 67.195313 47.0625 58.148438 44.742188 C 57.40625 44.523438 56.679688 44.359375 56 44.242188 L 56 35.40625 C 63.640625 32.5 68 27.671875 68 22 C 68 16.523438 66.265625 10 58 10 C 50 10 50 26.554688 50 32 L 50 32.617188 C 46.007813 33.273438 41.585938 34.289063 39.5625 35 C 36.390625 36.109375 32.710938 38.648438 30.226563 41.578125 C 27.710938 44.484375 26.328125 48.359375 26.0625 51.984375 C 25.804688 55.523438 26.28125 59.460938 28.28125 62.914063 C 30.257813 66.375 33.554688 68.789063 36.8125 70.023438 C 39.664063 71.109375 43.539063 71.648438 47.359375 71.875 C 48.210938 71.945313 49.09375 71.992188 50 72.015625 L 50 76 C 50 76.59375 49.96875 77.15625 49.921875 77.695313 C 49.914063 77.757813 49.90625 77.8125 49.898438 77.875 C 49.851563 78.351563 49.78125 78.804688 49.695313 79.242188 C 48.851563 83.242188 46.367188 83.9375 44.296875 83.992188 C 40.40625 83.523438 40.023438 79.132813 40 78.039063 C 40 76.382813 38.65625 75.039063 37 75.039063 C 35.34375 75.039063 34 76.382813 34 78.039063 C 34 82.21875 36.625 87.390625 43.726563 87.945313 C 43.75 87.945313 43.765625 87.953125 43.789063 87.960938 C 43.820313 87.984375 43.875 88 44 88 C 44.15625 88 44.40625 87.992188 44.695313 87.984375 C 44.796875 87.984375 44.898438 88 45 88 C 45.671875 88 46.289063 87.945313 46.789063 87.773438 C 50.414063 87.15625 56 84.828125 56 76 L 56 71.8125 C 63.125 71.132813 70 68.25 70 58.8125 Z M 56 67.539063 L 56 49.125 C 58.789063 50.414063 62 53.125 62 58.8125 C 62 64.515625 59.054688 66.710938 56 67.539063 Z M 50 44.078125 C 46.953125 44.46875 44.226563 46.507813 43 48 C 39.765625 51.945313 39.9375 55.984375 40.054688 56.585938 C 40.34375 58.015625 41.59375 59 42.992188 59 C 43.195313 59 43.390625 58.976563 43.585938 58.945313 C 45.210938 58.617188 46.265625 57.039063 45.945313 55.414063 C 45.8125 54.757813 45.578125 51.984375 46.851563 50.4375 C 47.492188 49.65625 48.539063 48.523438 50 48.140625 L 50 67.828125 C 46.054688 67.492188 42.929688 66.539063 39.578125 64.398438 C 35.117188 61.59375 33.617188 57.695313 34.039063 52.632813 C 34.21875 50.21875 34.914063 48.117188 36.1875 46.265625 C 37.453125 44.40625 39.484375 42.265625 41.8125 40.875 C 44.148438 39.46875 47.273438 38.4375 50 37.757813 Z M 61.835938 21.75 C 61.835938 27.390625 58 30.289063 56 30.929688 C 56.015625 17.945313 56.109375 14.679688 57.578125 14.101563 C 57.703125 14.0625 57.804688 14.039063 57.875 14.023438 C 57.921875 14.015625 57.960938 14.007813 58 14 C 59.945313 14 61.835938 14.585938 61.835938 21.75 Z "/>
</g>
</svg>
