<?xml version="1.0" encoding="UTF-8"?>
<svg xmlns="http://www.w3.org/2000/svg" xmlns:xlink="http://www.w3.org/1999/xlink" width="96pt" height="96pt" viewBox="0 0 96 96" version="1.1">
<g id="surface1">
<path style=" stroke:none;fill-rule:nonzero;fill:#7E57C2;fill-opacity:1;" d="M 50.03125 8 L 21.5 14.414063 C 20.914063 14.5625 16 15.742188 16 18.578125 L 16 71.984375 C 16.742188 72 17.4375 72 18.03125 72 L 50.03125 62 C 50.03125 62 52.03125 61.25 52.03125 58 C 52.03125 56 52.03125 9.992188 52.03125 9.992188 C 52.03125 8.890625 51.132813 8 50.03125 8 Z "/>
<path style=" stroke:none;fill-rule:nonzero;fill:#4527A0;fill-opacity:1;" d="M 50.03125 8 L 21.5 14.414063 C 20.914063 14.5625 16 15.742188 16 18.578125 L 16 71.984375 C 16.742188 72 17.4375 72 18.03125 72 L 50.03125 62 C 50.03125 62 52.03125 61.25 52.03125 58 C 52.03125 56 52.03125 9.992188 52.03125 9.992188 C 52.03125 8.890625 51.132813 8 50.03125 8 Z "/>
<path style=" stroke:none;fill-rule:nonzero;fill:#7E57C2;fill-opacity:1;" d="M 62 14.578125 L 30 22.578125 C 25.5 23.742188 15.96875 24.578125 16 18.578125 L 15.96875 18.578125 C 15.96875 37.898438 15.96875 72 15.96875 72 L 16 72 C 15.96875 78 25.585938 78 30 78 L 62 68 C 62 68 64 67.25 64 64 C 64 62 64 16.578125 64 16.578125 C 64 15.476563 63.109375 14.578125 62 14.578125 Z "/>
<path style=" stroke:none;fill-rule:nonzero;fill:#7E57C2;fill-opacity:1;" d="M 66.03125 17.25 L 37.5 24.414063 C 36.914063 24.5625 32 25.742188 32 28.578125 L 32 81.984375 C 32.742188 82 33.4375 82 34.03125 82 L 66.03125 72 C 66.03125 72 68.03125 71.25 68.03125 68 C 68.03125 66 68.03125 19.242188 68.03125 19.242188 C 68.03125 18.140625 67.132813 17.25 66.03125 17.25 Z "/>
<path style=" stroke:none;fill-rule:nonzero;fill:#BF360C;fill-opacity:1;" d="M 66.03125 17.25 L 37.5 24.414063 C 36.914063 24.5625 32 25.742188 32 28.578125 L 32 81.984375 C 32.742188 82 33.4375 82 34.03125 82 L 66.03125 72 C 66.03125 72 68.03125 71.25 68.03125 68 C 68.03125 66 68.03125 19.242188 68.03125 19.242188 C 68.03125 18.140625 67.132813 17.25 66.03125 17.25 Z "/>
<path style=" stroke:none;fill-rule:nonzero;fill:#7E57C2;fill-opacity:1;" d="M 32 81.984375 C 31.96875 87.984375 41.585938 88 46 88 L 78 77.335938 C 78 77.335938 80 76.585938 80 73.335938 C 80 71.335938 80 26 80 26 C 80 24.898438 79.109375 24.007813 78 24.007813 L 46 32.578125 C 41.5 33.742188 31.96875 34.578125 32 28.578125 "/>
<path style=" stroke:none;fill-rule:nonzero;fill:#FF3D00;fill-opacity:1;" d="M 32 81.984375 C 31.96875 87.984375 41.585938 88 46 88 L 78 77.335938 C 78 77.335938 80 76.585938 80 73.335938 C 80 71.335938 80 26 80 26 C 80 24.898438 79.109375 24.007813 78 24.007813 L 46 32.578125 C 41.5 33.742188 31.96875 34.578125 32 28.578125 "/>
<path style=" stroke:none;fill-rule:nonzero;fill:#FFE0B2;fill-opacity:1;" d="M 22 21.085938 C 23.507813 21.960938 25.921875 22.578125 28.039063 23 C 28.757813 22.875 29.421875 22.734375 30 22.578125 L 59.03125 15.320313 L 50 12 L 24.164063 18.25 C 24.164063 18.25 18.835938 19.25 22 21.085938 Z "/>
<path style=" stroke:none;fill-rule:nonzero;fill:#FFE0B2;fill-opacity:1;" d="M 38 31.085938 C 39.507813 31.960938 41.921875 32.578125 44.039063 33 C 44.757813 32.875 45.421875 32.734375 46 32.578125 L 75.789063 24.601563 L 66 21.25 L 40.164063 28.25 C 40.164063 28.25 34.835938 29.25 38 31.085938 Z "/>
<path style=" stroke:none;fill-rule:nonzero;fill:#FFECB3;fill-opacity:1;" d="M 76 50 L 76 40 L 48 48 L 48 58 Z "/>
</g>
</svg>
