<?xml version="1.0" encoding="UTF-8"?>
<svg xmlns="http://www.w3.org/2000/svg" xmlns:xlink="http://www.w3.org/1999/xlink" width="96pt" height="96pt" viewBox="0 0 96 96" version="1.1">
<g id="surface1">
<path style=" stroke:none;fill-rule:nonzero;fill:#FFA000;fill-opacity:1;" d="M 80 24 L 44 24 L 36 16 L 16 16 C 11.601563 16 8 19.601563 8 24 L 8 40 L 88 40 L 88 32 C 88 27.601563 84.398438 24 80 24 Z "/>
<path style=" stroke:none;fill-rule:nonzero;fill:#FFCA28;fill-opacity:1;" d="M 80 24 L 16 24 C 11.601563 24 8 27.601563 8 32 L 8 72 C 8 76.398438 11.601563 80 16 80 L 80 80 C 84.398438 80 88 76.398438 88 72 L 88 32 C 88 27.601563 84.398438 24 80 24 Z "/>
<path style=" stroke:none;fill-rule:nonzero;fill:#64B5F6;fill-opacity:1;" d="M 66 72 L 34 72 L 34 32 L 55 32 L 66 43 Z "/>
<path style=" stroke:none;fill-rule:nonzero;fill:#E1F5FE;fill-opacity:1;" d="M 64 44 L 54 44 L 54 34 Z "/>
</g>
</svg>
