<?xml version="1.0" encoding="UTF-8"?>
<svg xmlns="http://www.w3.org/2000/svg" xmlns:xlink="http://www.w3.org/1999/xlink" width="96pt" height="96pt" viewBox="0 0 96 96" version="1.1">
<g id="surface1">
<path style=" stroke:none;fill-rule:nonzero;fill:#64B5F6;fill-opacity:1;" d="M 34.945313 17.15625 L 88.03125 34.976563 L 70.210938 88.070313 L 17.125 70.25 Z "/>
<path style=" stroke:none;fill-rule:nonzero;fill:#1E88E5;fill-opacity:1;" d="M 38.476563 24.992188 L 80.3125 38.617188 L 67.921875 76.648438 L 26.09375 63.023438 Z "/>
<path style=" stroke:none;fill-rule:nonzero;fill:#90CAF9;fill-opacity:1;" d="M 21.757813 11.570313 L 76.828125 21.734375 L 66.664063 76.804688 L 11.59375 66.640625 Z "/>
<path style=" stroke:none;fill-rule:nonzero;fill:#42A5F5;fill-opacity:1;" d="M 26.4375 18.867188 L 69.757813 26.554688 L 62.765625 65.9375 L 19.445313 58.257813 Z "/>
<path style=" stroke:none;fill-rule:nonzero;fill:#BBDEFB;fill-opacity:1;" d="M 8 8 L 64 8 L 64 64 L 8 64 Z "/>
<path style=" stroke:none;fill-rule:nonzero;fill:#4CAF50;fill-opacity:1;" d="M 14 14 L 58 14 L 58 54 L 14 54 Z "/>
<path style=" stroke:none;fill-rule:nonzero;fill:#FFFFFF;fill-opacity:1;" d="M 32 26 C 32 23.796875 33.796875 22 36 22 C 38.203125 22 40 23.796875 40 26 C 40 28.203125 36 34 36 34 C 36 34 32 28.203125 32 26 Z "/>
<path style=" stroke:none;fill-rule:nonzero;fill:#FFFFFF;fill-opacity:1;" d="M 40 42 C 40 44.203125 38.203125 46 36 46 C 33.796875 46 32 44.203125 32 42 C 32 39.796875 36 34 36 34 C 36 34 40 39.796875 40 42 Z "/>
<path style=" stroke:none;fill-rule:nonzero;fill:#FFFFFF;fill-opacity:1;" d="M 27 33.398438 C 25 32.203125 24.398438 29.796875 25.601563 28 C 26.796875 26 29.203125 25.398438 31 26.601563 C 33 27.796875 36 34 36 34 C 36 34 29 34.601563 27 33.398438 Z "/>
<path style=" stroke:none;fill-rule:nonzero;fill:#FFFFFF;fill-opacity:1;" d="M 45 34.601563 C 47 35.796875 47.601563 38.203125 46.398438 40 C 45.203125 42 42.796875 42.601563 41 41.398438 C 39 40.398438 36 34 36 34 C 36 34 43 33.398438 45 34.601563 Z "/>
<path style=" stroke:none;fill-rule:nonzero;fill:#FFFFFF;fill-opacity:1;" d="M 45 33.398438 C 47 32.203125 47.601563 29.796875 46.398438 28 C 45.203125 26 42.796875 25.398438 41 26.601563 C 39 27.601563 36 34 36 34 C 36 34 43 34.601563 45 33.398438 Z "/>
<path style=" stroke:none;fill-rule:nonzero;fill:#FFFFFF;fill-opacity:1;" d="M 27 34.601563 C 25 35.796875 24.398438 38.203125 25.601563 40 C 26.796875 42 29.203125 42.601563 31 41.398438 C 33 40.203125 36 34 36 34 C 36 34 29 33.398438 27 34.601563 Z "/>
<path style=" stroke:none;fill-rule:nonzero;fill:#FFC107;fill-opacity:1;" d="M 40 34 C 40 36.210938 38.210938 38 36 38 C 33.789063 38 32 36.210938 32 34 C 32 31.789063 33.789063 30 36 30 C 38.210938 30 40 31.789063 40 34 Z "/>
</g>
</svg>
