<?xml version="1.0" encoding="UTF-8"?>
<svg xmlns="http://www.w3.org/2000/svg" xmlns:xlink="http://www.w3.org/1999/xlink" width="96pt" height="96pt" viewBox="0 0 96 96" version="1.1">
<g id="surface1">
<path style=" stroke:none;fill-rule:nonzero;fill:#FF5722;fill-opacity:1;" d="M 64 30 L 64 86 L 20 86 C 15.601563 86 12 82.398438 12 78 L 12 30 Z "/>
<path style=" stroke:none;fill-rule:nonzero;fill:#FFCCBC;fill-opacity:1;" d="M 28 10 L 28 78 C 28 82.398438 24.398438 86 20 86 L 78 86 C 82.398438 86 86 82.398438 86 78 L 86 10 Z "/>
<path style=" stroke:none;fill-rule:nonzero;fill:#FF5722;fill-opacity:1;" d="M 40 20 L 76 20 L 76 28 L 40 28 Z "/>
<path style=" stroke:none;fill-rule:nonzero;fill:#FF5722;fill-opacity:1;" d="M 40 34 L 56 34 L 56 38 L 40 38 Z "/>
<path style=" stroke:none;fill-rule:nonzero;fill:#FF5722;fill-opacity:1;" d="M 60 34 L 76 34 L 76 38 L 60 38 Z "/>
<path style=" stroke:none;fill-rule:nonzero;fill:#FF5722;fill-opacity:1;" d="M 40 42 L 56 42 L 56 46 L 40 46 Z "/>
<path style=" stroke:none;fill-rule:nonzero;fill:#FF5722;fill-opacity:1;" d="M 60 42 L 76 42 L 76 46 L 60 46 Z "/>
<path style=" stroke:none;fill-rule:nonzero;fill:#FF5722;fill-opacity:1;" d="M 40 50 L 56 50 L 56 54 L 40 54 Z "/>
<path style=" stroke:none;fill-rule:nonzero;fill:#FF5722;fill-opacity:1;" d="M 60 50 L 76 50 L 76 54 L 60 54 Z "/>
<path style=" stroke:none;fill-rule:nonzero;fill:#FF5722;fill-opacity:1;" d="M 40 58 L 56 58 L 56 62 L 40 62 Z "/>
<path style=" stroke:none;fill-rule:nonzero;fill:#FF5722;fill-opacity:1;" d="M 60 58 L 76 58 L 76 62 L 60 62 Z "/>
<path style=" stroke:none;fill-rule:nonzero;fill:#FF5722;fill-opacity:1;" d="M 40 66 L 56 66 L 56 70 L 40 70 Z "/>
<path style=" stroke:none;fill-rule:nonzero;fill:#FF5722;fill-opacity:1;" d="M 60 66 L 76 66 L 76 70 L 60 70 Z "/>
<path style=" stroke:none;fill-rule:nonzero;fill:#FF5722;fill-opacity:1;" d="M 40 74 L 56 74 L 56 78 L 40 78 Z "/>
<path style=" stroke:none;fill-rule:nonzero;fill:#FF5722;fill-opacity:1;" d="M 60 74 L 76 74 L 76 78 L 60 78 Z "/>
</g>
</svg>
