<?xml version="1.0" encoding="UTF-8"?>
<svg xmlns="http://www.w3.org/2000/svg" xmlns:xlink="http://www.w3.org/1999/xlink" width="96pt" height="96pt" viewBox="0 0 96 96" version="1.1">
<g id="surface1">
<path style=" stroke:none;fill-rule:nonzero;fill:#37474F;fill-opacity:1;" d="M 46 10 L 50 10 L 50 80 L 46 80 Z "/>
<path style=" stroke:none;fill-rule:nonzero;fill:#CFD8DC;fill-opacity:1;" d="M 8 10 L 88 10 L 88 68 L 8 68 Z "/>
<path style=" stroke:none;fill-rule:nonzero;fill:#607D8B;fill-opacity:1;" d="M 90 18 L 6 18 L 6 10 L 90 10 Z M 90 66 L 6 66 L 6 70 L 90 70 Z M 44 80 C 44 82.210938 45.789063 84 48 84 C 50.210938 84 52 82.210938 52 80 C 52 77.789063 50.210938 76 48 76 C 45.789063 76 44 77.789063 44 80 "/>
<path style=" stroke:none;fill-rule:nonzero;fill:#C2185B;fill-opacity:1;" d="M 30 30 C 22.265625 30 16 36.265625 16 44 C 16 51.734375 22.265625 58 30 58 C 37.734375 58 44 51.734375 44 44 L 30 44 Z "/>
<path style=" stroke:none;fill-rule:nonzero;fill:#E91E63;fill-opacity:1;" d="M 34 26 L 34 40 L 48 40 C 48 32.265625 41.734375 26 34 26 Z "/>
<path style=" stroke:none;fill-rule:nonzero;fill:#90A4AE;fill-opacity:1;" d="M 80 32 L 56 32 L 56 28 L 80 28 Z M 76 36 L 56 36 L 56 40 L 76 40 Z M 80 44 L 56 44 L 56 48 L 80 48 Z M 76 52 L 56 52 L 56 56 L 76 56 Z "/>
</g>
</svg>
