<?xml version="1.0" encoding="UTF-8"?>
<svg xmlns="http://www.w3.org/2000/svg" xmlns:xlink="http://www.w3.org/1999/xlink" width="96pt" height="96pt" viewBox="0 0 96 96" version="1.1">
<g id="surface1">
<path style=" stroke:none;fill-rule:nonzero;fill:#3F51B5;fill-opacity:1;" d="M 90 18 L 6 18 L 6 78 L 90 78 Z M 44 74 L 44 66 L 52 66 L 52 74 Z M 60 74 L 60 66 L 68 66 L 68 74 Z M 76 74 L 76 66 L 84 66 L 84 74 Z M 28 74 L 28 66 L 36 66 L 36 74 Z M 12 74 L 12 66 L 20 66 L 20 74 Z M 44 30 L 44 22 L 52 22 L 52 30 Z M 60 30 L 60 22 L 68 22 L 68 30 Z M 76 30 L 76 22 L 84 22 L 84 30 Z M 28 30 L 28 22 L 36 22 L 36 30 Z M 12 30 L 12 22 L 20 22 L 20 30 Z "/>
</g>
</svg>
