<?xml version="1.0" encoding="UTF-8"?>
<svg xmlns="http://www.w3.org/2000/svg" xmlns:xlink="http://www.w3.org/1999/xlink" width="96pt" height="96pt" viewBox="0 0 96 96" version="1.1">
<g id="surface1">
<path style=" stroke:none;fill-rule:nonzero;fill:#BBDEFB;fill-opacity:1;" d="M 76 34 C 76 33.601563 76 33.398438 76 33 C 76 25.796875 70.203125 20 63 20 C 59.601563 20 56.601563 21.398438 54.203125 23.398438 C 51.398438 17.796875 45.601563 14 39 14 C 29.601563 14 22 21.601563 22 31 C 22 32 22.203125 33 22.203125 34 C 15.398438 34.796875 10 40.601563 10 47.796875 C 10 55.601563 16.203125 61.796875 24 61.796875 C 24 61.796875 24.203125 61.796875 24.203125 61.796875 C 24.796875 62 25.398438 62 26 62 L 76 62 C 83.796875 62 90 55.796875 90 48 C 90 40.203125 83.796875 34 76 34 Z "/>
<path style=" stroke:none;fill-rule:nonzero;fill:#3F51B5;fill-opacity:1;" d="M 66.203125 54 L 50.203125 36 L 34.203125 54 L 44 54 L 44 82 L 56 82 L 56 54 Z "/>
</g>
</svg>
